<?xml version="1.0" standalone="no"?>
 <!DOCTYPE svg PUBLIC "-//W3C//DTD SVG 1.1//EN" 
 "http://www.w3.org/Graphics/SVG/1.1/DTD/svg11.dtd"> 
<svg
  xmlns:svg="http://www.w3.org/2000/svg"
  xmlns="http://www.w3.org/2000/svg"
  xmlns:xlink="http://www.w3.org/1999/xlink"
  version="1.1"
  width="297.0022mm" height="210.0072mm" viewBox="0.0000 0.0000 297.0022 210.0072">
<title>SVG Image created as wemosd1.svg date 2024/10/18 10:31:08 </title>
  <desc>Image generated by Eeschema-SVG </desc>
<g style="fill:#000000; fill-opacity:1.0000;stroke:#000000; stroke-opacity:1.0000;
stroke-linecap:round; stroke-linejoin:round;"
 transform="translate(0 0) scale(1 1)">
</g>
<g style="fill:none; 
stroke:#840000; stroke-width:0.2540; stroke-opacity:1; 
stroke-linecap:round; stroke-linejoin:round;">
<rect x="94.234000" y="77.470000" width="2.032000" height="5.080000" rx="0.000000" />
</g>
<g style="fill:none; 
stroke:#840000; stroke-width:0.1524; stroke-opacity:1; 
stroke-linecap:round; stroke-linejoin:round;">
<path d="M95.2500 77.4700
L95.2500 76.2000
" />
<path d="M95.2500 82.5500
L95.2500 83.8200
" />
</g>
<g style="fill:none; 
stroke:#006464; stroke-width:0.1524; stroke-opacity:1; 
stroke-linecap:round; stroke-linejoin:round;">
<text x="99.1409" y="79.3749"
textLength="2.6827" font-size="1.6933" lengthAdjust="spacingAndGlyphs"
text-anchor="middle" opacity="0" stroke-opacity="0">R1</text>
<g class="stroked-text"><desc>R1</desc>
<path d="M98.9292 79.3194
L98.5059 78.7147
" />
<path d="M98.2035 79.3194
L98.2035 78.0494
" />
<path d="M98.2035 78.0494
L98.6873 78.0494
" />
<path d="M98.6873 78.0494
L98.8083 78.1099
" />
<path d="M98.8083 78.1099
L98.8688 78.1704
" />
<path d="M98.8688 78.1704
L98.9292 78.2913
" />
<path d="M98.9292 78.2913
L98.9292 78.4728
" />
<path d="M98.9292 78.4728
L98.8688 78.5937
" />
<path d="M98.8688 78.5937
L98.8083 78.6542
" />
<path d="M98.8083 78.6542
L98.6873 78.7147
" />
<path d="M98.6873 78.7147
L98.2035 78.7147
" />
<path d="M100.1388 79.3194
L99.4131 79.3194
" />
<path d="M99.7759 79.3194
L99.7759 78.0494
" />
<path d="M99.7759 78.0494
L99.6550 78.2309
" />
<path d="M99.6550 78.2309
L99.5340 78.3518
" />
<path d="M99.5340 78.3518
L99.4131 78.4123
" />
</g><text x="98.5362" y="81.9149"
textLength="1.4732" font-size="1.6933" lengthAdjust="spacingAndGlyphs"
text-anchor="middle" opacity="0" stroke-opacity="0">R</text>
<g class="stroked-text"><desc>R</desc>
<path d="M98.9292 81.8594
L98.5059 81.2547
" />
<path d="M98.2035 81.8594
L98.2035 80.5894
" />
<path d="M98.2035 80.5894
L98.6873 80.5894
" />
<path d="M98.6873 80.5894
L98.8083 80.6499
" />
<path d="M98.8083 80.6499
L98.8688 80.7104
" />
<path d="M98.8688 80.7104
L98.9292 80.8313
" />
<path d="M98.9292 80.8313
L98.9292 81.0128
" />
<path d="M98.9292 81.0128
L98.8688 81.1337
" />
<path d="M98.8688 81.1337
L98.8083 81.1942
" />
<path d="M98.8083 81.1942
L98.6873 81.2547
" />
<path d="M98.6873 81.2547
L98.2035 81.2547
" />
</g><path style="fill:none; 
stroke:#840000; stroke-width:0.2540; stroke-opacity:1; 
stroke-linecap:round; stroke-linejoin:round;fill:none"
d="M 96.5200,62.2300
93.9800,62.2300
" /> 
<path style="fill:none; 
stroke:#840000; stroke-width:0.1524; stroke-opacity:1; 
stroke-linecap:round; stroke-linejoin:round;fill:none"
d="M 95.2500,62.2300
95.2500,59.6900
" /> 
<path style="fill:none; 
stroke:#840000; stroke-width:0.2540; stroke-opacity:1; 
stroke-linecap:round; stroke-linejoin:round;fill:none"
d="M 96.5200,59.6900
93.9800,59.6900
95.2500,62.2300
Z" /> 
<path style="fill:none; 
stroke:#840000; stroke-width:0.1524; stroke-opacity:1; 
stroke-linecap:round; stroke-linejoin:round;fill:none"
d="M 96.0120,64.0080
97.5360,65.5320
97.5360,64.7700
97.5360,65.5320
96.7740,65.5320
" /> 
<path style="fill:none; 
stroke:#840000; stroke-width:0.1524; stroke-opacity:1; 
stroke-linecap:round; stroke-linejoin:round;fill:none"
d="M 96.0120,62.7380
97.5360,64.2620
97.5360,63.5000
97.5360,64.2620
96.7740,64.2620
" /> 
</g>
<g style="fill:none; 
stroke:#840000; stroke-width:0.1524; stroke-opacity:1; 
stroke-linecap:round; stroke-linejoin:round;">
<path d="M95.2500 62.2300
L95.2500 64.7700
" />
<path d="M95.2500 59.6900
L95.2500 57.1500
" />
</g>
<g style="fill:none; 
stroke:#006464; stroke-width:0.1524; stroke-opacity:1; 
stroke-linecap:round; stroke-linejoin:round;">
<text x="100.4109" y="61.9123"
textLength="2.6827" font-size="1.6933" lengthAdjust="spacingAndGlyphs"
text-anchor="middle" opacity="0" stroke-opacity="0">D1</text>
<g class="stroked-text"><desc>D1</desc>
<path d="M99.4735 61.8568
L99.4735 60.5868
" />
<path d="M99.4735 60.5868
L99.7759 60.5868
" />
<path d="M99.7759 60.5868
L99.9573 60.6473
" />
<path d="M99.9573 60.6473
L100.0783 60.7683
" />
<path d="M100.0783 60.7683
L100.1388 60.8892
" />
<path d="M100.1388 60.8892
L100.1992 61.1311
" />
<path d="M100.1992 61.1311
L100.1992 61.3125
" />
<path d="M100.1992 61.3125
L100.1388 61.5544
" />
<path d="M100.1388 61.5544
L100.0783 61.6754
" />
<path d="M100.0783 61.6754
L99.9573 61.7964
" />
<path d="M99.9573 61.7964
L99.7759 61.8568
" />
<path d="M99.7759 61.8568
L99.4735 61.8568
" />
<path d="M101.4088 61.8568
L100.6831 61.8568
" />
<path d="M101.0459 61.8568
L101.0459 60.5868
" />
<path d="M101.0459 60.5868
L100.9250 60.7683
" />
<path d="M100.9250 60.7683
L100.8040 60.8892
" />
<path d="M100.8040 60.8892
L100.6831 60.9497
" />
</g><text x="100.8947" y="64.4523"
textLength="3.6503" font-size="1.6933" lengthAdjust="spacingAndGlyphs"
text-anchor="middle" opacity="0" stroke-opacity="0">LED</text>
<g class="stroked-text"><desc>LED</desc>
<path d="M100.0783 64.3968
L99.4735 64.3968
" />
<path d="M99.4735 64.3968
L99.4735 63.1268
" />
<path d="M100.5016 63.7316
L100.9250 63.7316
" />
<path d="M101.1064 64.3968
L100.5016 64.3968
" />
<path d="M100.5016 64.3968
L100.5016 63.1268
" />
<path d="M100.5016 63.1268
L101.1064 63.1268
" />
<path d="M101.6506 64.3968
L101.6506 63.1268
" />
<path d="M101.6506 63.1268
L101.9530 63.1268
" />
<path d="M101.9530 63.1268
L102.1344 63.1873
" />
<path d="M102.1344 63.1873
L102.2554 63.3083
" />
<path d="M102.2554 63.3083
L102.3159 63.4292
" />
<path d="M102.3159 63.4292
L102.3763 63.6711
" />
<path d="M102.3763 63.6711
L102.3763 63.8525
" />
<path d="M102.3763 63.8525
L102.3159 64.0944
" />
<path d="M102.3159 64.0944
L102.2554 64.2154
" />
<path d="M102.2554 64.2154
L102.1344 64.3364
" />
<path d="M102.1344 64.3364
L101.9530 64.3968
" />
<path d="M101.9530 64.3968
L101.6506 64.3968
" />
</g></g>
<g style="fill:#FFFFC2; fill-opacity:1.0000; stroke:none;">
<rect x="50.800000" y="54.610000" width="15.240000" height="35.560000" rx="0.000000" />
</g>
<g style="fill:none; 
stroke:#840000; stroke-width:0.2540; stroke-opacity:1; 
stroke-linecap:round; stroke-linejoin:round;">
<rect x="50.800000" y="54.610000" width="15.240000" height="35.560000" rx="0.000000" />
</g>
<g style="fill:none; 
stroke:#840000; stroke-width:0.1524; stroke-opacity:1; 
stroke-linecap:round; stroke-linejoin:round;">
<path d="M50.8000 62.2300
L48.2600 62.2300
" />
</g>
<g style="fill:none; 
stroke:#006464; stroke-width:0.1524; stroke-opacity:1; 
stroke-linecap:round; stroke-linejoin:round;">
<text x="51.3080" y="62.8650"
textLength="3.6503" font-size="1.6933" lengthAdjust="spacingAndGlyphs"
text-anchor="start" opacity="0" stroke-opacity="0">~{RST}</text>
<g class="stroked-text"><desc>~{RST}</desc>
<path d="M52.4362 62.8095
L52.0129 62.2048
" />
<path d="M51.7105 62.8095
L51.7105 61.5395
" />
<path d="M51.7105 61.5395
L52.1943 61.5395
" />
<path d="M52.1943 61.5395
L52.3153 61.6000
" />
<path d="M52.3153 61.6000
L52.3758 61.6605
" />
<path d="M52.3758 61.6605
L52.4362 61.7814
" />
<path d="M52.4362 61.7814
L52.4362 61.9629
" />
<path d="M52.4362 61.9629
L52.3758 62.0838
" />
<path d="M52.3758 62.0838
L52.3153 62.1443
" />
<path d="M52.3153 62.1443
L52.1943 62.2048
" />
<path d="M52.1943 62.2048
L51.7105 62.2048
" />
<path d="M52.9201 62.7491
L53.1015 62.8095
" />
<path d="M53.1015 62.8095
L53.4039 62.8095
" />
<path d="M53.4039 62.8095
L53.5248 62.7491
" />
<path d="M53.5248 62.7491
L53.5853 62.6886
" />
<path d="M53.5853 62.6886
L53.6458 62.5676
" />
<path d="M53.6458 62.5676
L53.6458 62.4467
" />
<path d="M53.6458 62.4467
L53.5853 62.3257
" />
<path d="M53.5853 62.3257
L53.5248 62.2652
" />
<path d="M53.5248 62.2652
L53.4039 62.2048
" />
<path d="M53.4039 62.2048
L53.1620 62.1443
" />
<path d="M53.1620 62.1443
L53.0410 62.0838
" />
<path d="M53.0410 62.0838
L52.9805 62.0233
" />
<path d="M52.9805 62.0233
L52.9201 61.9024
" />
<path d="M52.9201 61.9024
L52.9201 61.7814
" />
<path d="M52.9201 61.7814
L52.9805 61.6605
" />
<path d="M52.9805 61.6605
L53.0410 61.6000
" />
<path d="M53.0410 61.6000
L53.1620 61.5395
" />
<path d="M53.1620 61.5395
L53.4643 61.5395
" />
<path d="M53.4643 61.5395
L53.6458 61.6000
" />
<path d="M54.0086 61.5395
L54.7343 61.5395
" />
<path d="M54.3715 62.8095
L54.3715 61.5395
" />
<path d="M51.5352 61.1870
L54.7283 61.1870
" />
</g></g>
<g style="fill:none; 
stroke:#A90000; stroke-width:0.1524; stroke-opacity:1; 
stroke-linecap:round; stroke-linejoin:round;">
<text x="49.5300" y="61.9760"
textLength="1.4127" font-size="1.6933" lengthAdjust="spacingAndGlyphs"
text-anchor="middle" opacity="0" stroke-opacity="0">1</text>
<g class="stroked-text"><desc>1</desc>
<path d="M49.8929 61.8125
L49.1672 61.8125
" />
<path d="M49.5300 61.8125
L49.5300 60.5425
" />
<path d="M49.5300 60.5425
L49.4091 60.7240
" />
<path d="M49.4091 60.7240
L49.2881 60.8449
" />
<path d="M49.2881 60.8449
L49.1672 60.9054
" />
</g></g>
<g style="fill:none; 
stroke:#840000; stroke-width:0.1524; stroke-opacity:1; 
stroke-linecap:round; stroke-linejoin:round;">
<path d="M58.4200 90.1700
L58.4200 92.7100
" />
</g>
<g style="fill:none; 
stroke:#006464; stroke-width:0.1524; stroke-opacity:1; 
stroke-linecap:round; stroke-linejoin:round;">
<g transform="rotate(-90.000000 58.4200 89.6620)">
<text x="58.4200" y="90.2970"
textLength="4.0737" font-size="1.6933" lengthAdjust="spacingAndGlyphs"
text-anchor="start" opacity="0" stroke-opacity="0">GND</text>
</g>
<g class="stroked-text"><desc>GND</desc>
<path d="M57.7900 88.5941
L57.7295 88.7151
" />
<path d="M57.7295 88.7151
L57.7295 88.8965
" />
<path d="M57.7295 88.8965
L57.7900 89.0779
" />
<path d="M57.7900 89.0779
L57.9110 89.1989
" />
<path d="M57.9110 89.1989
L58.0319 89.2594
" />
<path d="M58.0319 89.2594
L58.2738 89.3198
" />
<path d="M58.2738 89.3198
L58.4552 89.3198
" />
<path d="M58.4552 89.3198
L58.6971 89.2594
" />
<path d="M58.6971 89.2594
L58.8181 89.1989
" />
<path d="M58.8181 89.1989
L58.9391 89.0779
" />
<path d="M58.9391 89.0779
L58.9995 88.8965
" />
<path d="M58.9995 88.8965
L58.9995 88.7756
" />
<path d="M58.9995 88.7756
L58.9391 88.5941
" />
<path d="M58.9391 88.5941
L58.8786 88.5337
" />
<path d="M58.8786 88.5337
L58.4552 88.5337
" />
<path d="M58.4552 88.5337
L58.4552 88.7756
" />
<path d="M58.9995 87.9894
L57.7295 87.9894
" />
<path d="M57.7295 87.9894
L58.9995 87.2637
" />
<path d="M58.9995 87.2637
L57.7295 87.2637
" />
<path d="M58.9995 86.6589
L57.7295 86.6589
" />
<path d="M57.7295 86.6589
L57.7295 86.3565
" />
<path d="M57.7295 86.3565
L57.7900 86.1751
" />
<path d="M57.7900 86.1751
L57.9110 86.0541
" />
<path d="M57.9110 86.0541
L58.0319 85.9936
" />
<path d="M58.0319 85.9936
L58.2738 85.9332
" />
<path d="M58.2738 85.9332
L58.4552 85.9332
" />
<path d="M58.4552 85.9332
L58.6971 85.9936
" />
<path d="M58.6971 85.9936
L58.8181 86.0541
" />
<path d="M58.8181 86.0541
L58.9391 86.1751
" />
<path d="M58.9391 86.1751
L58.9995 86.3565
" />
<path d="M58.9995 86.3565
L58.9995 86.6589
" />
</g></g>
<g style="fill:none; 
stroke:#A90000; stroke-width:0.1524; stroke-opacity:1; 
stroke-linecap:round; stroke-linejoin:round;">
<g transform="rotate(-90.000000 58.1660 91.4400)">
<text x="58.1660" y="91.4400"
textLength="2.6222" font-size="1.6933" lengthAdjust="spacingAndGlyphs"
text-anchor="middle" opacity="0" stroke-opacity="0">10</text>
</g>
<g class="stroked-text"><desc>10</desc>
<path d="M58.0025 91.6818
L58.0025 92.4075
" />
<path d="M58.0025 92.0447
L56.7325 92.0447
" />
<path d="M56.7325 92.0447
L56.9140 92.1656
" />
<path d="M56.9140 92.1656
L57.0349 92.2866
" />
<path d="M57.0349 92.2866
L57.0954 92.4075
" />
<path d="M56.7325 90.8957
L56.7325 90.7747
" />
<path d="M56.7325 90.7747
L56.7930 90.6538
" />
<path d="M56.7930 90.6538
L56.8535 90.5933
" />
<path d="M56.8535 90.5933
L56.9744 90.5328
" />
<path d="M56.9744 90.5328
L57.2163 90.4723
" />
<path d="M57.2163 90.4723
L57.5187 90.4723
" />
<path d="M57.5187 90.4723
L57.7606 90.5328
" />
<path d="M57.7606 90.5328
L57.8816 90.5933
" />
<path d="M57.8816 90.5933
L57.9421 90.6538
" />
<path d="M57.9421 90.6538
L58.0025 90.7747
" />
<path d="M58.0025 90.7747
L58.0025 90.8957
" />
<path d="M58.0025 90.8957
L57.9421 91.0166
" />
<path d="M57.9421 91.0166
L57.8816 91.0771
" />
<path d="M57.8816 91.0771
L57.7606 91.1376
" />
<path d="M57.7606 91.1376
L57.5187 91.1980
" />
<path d="M57.5187 91.1980
L57.2163 91.1980
" />
<path d="M57.2163 91.1980
L56.9744 91.1376
" />
<path d="M56.9744 91.1376
L56.8535 91.0771
" />
<path d="M56.8535 91.0771
L56.7930 91.0166
" />
<path d="M56.7930 91.0166
L56.7325 90.8957
" />
</g></g>
<g style="fill:none; 
stroke:#840000; stroke-width:0.1524; stroke-opacity:1; 
stroke-linecap:round; stroke-linejoin:round;">
<path d="M66.0400 72.3900
L68.5800 72.3900
" />
</g>
<g style="fill:none; 
stroke:#006464; stroke-width:0.1524; stroke-opacity:1; 
stroke-linecap:round; stroke-linejoin:round;">
<text x="65.5320" y="73.0250"
textLength="2.6827" font-size="1.6933" lengthAdjust="spacingAndGlyphs"
text-anchor="end" opacity="0" stroke-opacity="0">D4</text>
<g class="stroked-text"><desc>D4</desc>
<path d="M63.2546 72.9695
L63.2546 71.6995
" />
<path d="M63.2546 71.6995
L63.5570 71.6995
" />
<path d="M63.5570 71.6995
L63.7384 71.7600
" />
<path d="M63.7384 71.7600
L63.8594 71.8810
" />
<path d="M63.8594 71.8810
L63.9199 72.0019
" />
<path d="M63.9199 72.0019
L63.9803 72.2438
" />
<path d="M63.9803 72.2438
L63.9803 72.4252
" />
<path d="M63.9803 72.4252
L63.9199 72.6671
" />
<path d="M63.9199 72.6671
L63.8594 72.7881
" />
<path d="M63.8594 72.7881
L63.7384 72.9091
" />
<path d="M63.7384 72.9091
L63.5570 72.9695
" />
<path d="M63.5570 72.9695
L63.2546 72.9695
" />
<path d="M65.0689 72.1229
L65.0689 72.9695
" />
<path d="M64.7665 71.6391
L64.4642 72.5462
" />
<path d="M64.4642 72.5462
L65.2503 72.5462
" />
</g></g>
<g style="fill:none; 
stroke:#A90000; stroke-width:0.1524; stroke-opacity:1; 
stroke-linecap:round; stroke-linejoin:round;">
<text x="67.3100" y="72.1360"
textLength="2.6222" font-size="1.6933" lengthAdjust="spacingAndGlyphs"
text-anchor="middle" opacity="0" stroke-opacity="0">11</text>
<g class="stroked-text"><desc>11</desc>
<path d="M67.0681 71.9725
L66.3424 71.9725
" />
<path d="M66.7052 71.9725
L66.7052 70.7025
" />
<path d="M66.7052 70.7025
L66.5843 70.8840
" />
<path d="M66.5843 70.8840
L66.4633 71.0049
" />
<path d="M66.4633 71.0049
L66.3424 71.0654
" />
<path d="M68.2776 71.9725
L67.5519 71.9725
" />
<path d="M67.9147 71.9725
L67.9147 70.7025
" />
<path d="M67.9147 70.7025
L67.7938 70.8840
" />
<path d="M67.7938 70.8840
L67.6728 71.0049
" />
<path d="M67.6728 71.0049
L67.5519 71.0654
" />
</g></g>
<g style="fill:none; 
stroke:#840000; stroke-width:0.1524; stroke-opacity:1; 
stroke-linecap:round; stroke-linejoin:round;">
<path d="M66.0400 69.8500
L68.5800 69.8500
" />
</g>
<g style="fill:none; 
stroke:#006464; stroke-width:0.1524; stroke-opacity:1; 
stroke-linecap:round; stroke-linejoin:round;">
<text x="65.5320" y="70.4850"
textLength="2.6827" font-size="1.6933" lengthAdjust="spacingAndGlyphs"
text-anchor="end" opacity="0" stroke-opacity="0">D3</text>
<g class="stroked-text"><desc>D3</desc>
<path d="M63.2546 70.4295
L63.2546 69.1595
" />
<path d="M63.2546 69.1595
L63.5570 69.1595
" />
<path d="M63.5570 69.1595
L63.7384 69.2200
" />
<path d="M63.7384 69.2200
L63.8594 69.3410
" />
<path d="M63.8594 69.3410
L63.9199 69.4619
" />
<path d="M63.9199 69.4619
L63.9803 69.7038
" />
<path d="M63.9803 69.7038
L63.9803 69.8852
" />
<path d="M63.9803 69.8852
L63.9199 70.1271
" />
<path d="M63.9199 70.1271
L63.8594 70.2481
" />
<path d="M63.8594 70.2481
L63.7384 70.3691
" />
<path d="M63.7384 70.3691
L63.5570 70.4295
" />
<path d="M63.5570 70.4295
L63.2546 70.4295
" />
<path d="M64.4037 69.1595
L65.1899 69.1595
" />
<path d="M65.1899 69.1595
L64.7665 69.6433
" />
<path d="M64.7665 69.6433
L64.9480 69.6433
" />
<path d="M64.9480 69.6433
L65.0689 69.7038
" />
<path d="M65.0689 69.7038
L65.1294 69.7643
" />
<path d="M65.1294 69.7643
L65.1899 69.8852
" />
<path d="M65.1899 69.8852
L65.1899 70.1876
" />
<path d="M65.1899 70.1876
L65.1294 70.3086
" />
<path d="M65.1294 70.3086
L65.0689 70.3691
" />
<path d="M65.0689 70.3691
L64.9480 70.4295
" />
<path d="M64.9480 70.4295
L64.5851 70.4295
" />
<path d="M64.5851 70.4295
L64.4642 70.3691
" />
<path d="M64.4642 70.3691
L64.4037 70.3086
" />
</g></g>
<g style="fill:none; 
stroke:#A90000; stroke-width:0.1524; stroke-opacity:1; 
stroke-linecap:round; stroke-linejoin:round;">
<text x="67.3100" y="69.5960"
textLength="2.6222" font-size="1.6933" lengthAdjust="spacingAndGlyphs"
text-anchor="middle" opacity="0" stroke-opacity="0">12</text>
<g class="stroked-text"><desc>12</desc>
<path d="M67.0681 69.4325
L66.3424 69.4325
" />
<path d="M66.7052 69.4325
L66.7052 68.1625
" />
<path d="M66.7052 68.1625
L66.5843 68.3440
" />
<path d="M66.5843 68.3440
L66.4633 68.4649
" />
<path d="M66.4633 68.4649
L66.3424 68.5254
" />
<path d="M67.5519 68.2835
L67.6123 68.2230
" />
<path d="M67.6123 68.2230
L67.7333 68.1625
" />
<path d="M67.7333 68.1625
L68.0357 68.1625
" />
<path d="M68.0357 68.1625
L68.1566 68.2230
" />
<path d="M68.1566 68.2230
L68.2171 68.2835
" />
<path d="M68.2171 68.2835
L68.2776 68.4044
" />
<path d="M68.2776 68.4044
L68.2776 68.5254
" />
<path d="M68.2776 68.5254
L68.2171 68.7068
" />
<path d="M68.2171 68.7068
L67.4914 69.4325
" />
<path d="M67.4914 69.4325
L68.2776 69.4325
" />
</g></g>
<g style="fill:none; 
stroke:#840000; stroke-width:0.1524; stroke-opacity:1; 
stroke-linecap:round; stroke-linejoin:round;">
<path d="M66.0400 67.3100
L68.5800 67.3100
" />
</g>
<g style="fill:none; 
stroke:#006464; stroke-width:0.1524; stroke-opacity:1; 
stroke-linecap:round; stroke-linejoin:round;">
<text x="65.5320" y="67.9450"
textLength="7.5813" font-size="1.6933" lengthAdjust="spacingAndGlyphs"
text-anchor="end" opacity="0" stroke-opacity="0">SDA/D2</text>
<g class="stroked-text"><desc>SDA/D2</desc>
<path d="M58.2956 67.8291
L58.4770 67.8895
" />
<path d="M58.4770 67.8895
L58.7794 67.8895
" />
<path d="M58.7794 67.8895
L58.9003 67.8291
" />
<path d="M58.9003 67.8291
L58.9608 67.7686
" />
<path d="M58.9608 67.7686
L59.0213 67.6476
" />
<path d="M59.0213 67.6476
L59.0213 67.5267
" />
<path d="M59.0213 67.5267
L58.9608 67.4057
" />
<path d="M58.9608 67.4057
L58.9003 67.3452
" />
<path d="M58.9003 67.3452
L58.7794 67.2848
" />
<path d="M58.7794 67.2848
L58.5375 67.2243
" />
<path d="M58.5375 67.2243
L58.4165 67.1638
" />
<path d="M58.4165 67.1638
L58.3560 67.1033
" />
<path d="M58.3560 67.1033
L58.2956 66.9824
" />
<path d="M58.2956 66.9824
L58.2956 66.8614
" />
<path d="M58.2956 66.8614
L58.3560 66.7405
" />
<path d="M58.3560 66.7405
L58.4165 66.6800
" />
<path d="M58.4165 66.6800
L58.5375 66.6195
" />
<path d="M58.5375 66.6195
L58.8398 66.6195
" />
<path d="M58.8398 66.6195
L59.0213 66.6800
" />
<path d="M59.5655 67.8895
L59.5655 66.6195
" />
<path d="M59.5655 66.6195
L59.8679 66.6195
" />
<path d="M59.8679 66.6195
L60.0493 66.6800
" />
<path d="M60.0493 66.6800
L60.1703 66.8010
" />
<path d="M60.1703 66.8010
L60.2308 66.9219
" />
<path d="M60.2308 66.9219
L60.2912 67.1638
" />
<path d="M60.2912 67.1638
L60.2912 67.3452
" />
<path d="M60.2912 67.3452
L60.2308 67.5871
" />
<path d="M60.2308 67.5871
L60.1703 67.7081
" />
<path d="M60.1703 67.7081
L60.0493 67.8291
" />
<path d="M60.0493 67.8291
L59.8679 67.8895
" />
<path d="M59.8679 67.8895
L59.5655 67.8895
" />
<path d="M60.7751 67.5267
L61.3798 67.5267
" />
<path d="M60.6541 67.8895
L61.0774 66.6195
" />
<path d="M61.0774 66.6195
L61.5008 67.8895
" />
<path d="M62.8313 66.5591
L61.7427 68.1919
" />
<path d="M63.2546 67.8895
L63.2546 66.6195
" />
<path d="M63.2546 66.6195
L63.5570 66.6195
" />
<path d="M63.5570 66.6195
L63.7384 66.6800
" />
<path d="M63.7384 66.6800
L63.8594 66.8010
" />
<path d="M63.8594 66.8010
L63.9199 66.9219
" />
<path d="M63.9199 66.9219
L63.9803 67.1638
" />
<path d="M63.9803 67.1638
L63.9803 67.3452
" />
<path d="M63.9803 67.3452
L63.9199 67.5871
" />
<path d="M63.9199 67.5871
L63.8594 67.7081
" />
<path d="M63.8594 67.7081
L63.7384 67.8291
" />
<path d="M63.7384 67.8291
L63.5570 67.8895
" />
<path d="M63.5570 67.8895
L63.2546 67.8895
" />
<path d="M64.4642 66.7405
L64.5246 66.6800
" />
<path d="M64.5246 66.6800
L64.6456 66.6195
" />
<path d="M64.6456 66.6195
L64.9480 66.6195
" />
<path d="M64.9480 66.6195
L65.0689 66.6800
" />
<path d="M65.0689 66.6800
L65.1294 66.7405
" />
<path d="M65.1294 66.7405
L65.1899 66.8614
" />
<path d="M65.1899 66.8614
L65.1899 66.9824
" />
<path d="M65.1899 66.9824
L65.1294 67.1638
" />
<path d="M65.1294 67.1638
L64.4037 67.8895
" />
<path d="M64.4037 67.8895
L65.1899 67.8895
" />
</g></g>
<g style="fill:none; 
stroke:#A90000; stroke-width:0.1524; stroke-opacity:1; 
stroke-linecap:round; stroke-linejoin:round;">
<text x="67.3100" y="67.0560"
textLength="2.6222" font-size="1.6933" lengthAdjust="spacingAndGlyphs"
text-anchor="middle" opacity="0" stroke-opacity="0">13</text>
<g class="stroked-text"><desc>13</desc>
<path d="M67.0681 66.8925
L66.3424 66.8925
" />
<path d="M66.7052 66.8925
L66.7052 65.6225
" />
<path d="M66.7052 65.6225
L66.5843 65.8040
" />
<path d="M66.5843 65.8040
L66.4633 65.9249
" />
<path d="M66.4633 65.9249
L66.3424 65.9854
" />
<path d="M67.4914 65.6225
L68.2776 65.6225
" />
<path d="M68.2776 65.6225
L67.8542 66.1063
" />
<path d="M67.8542 66.1063
L68.0357 66.1063
" />
<path d="M68.0357 66.1063
L68.1566 66.1668
" />
<path d="M68.1566 66.1668
L68.2171 66.2273
" />
<path d="M68.2171 66.2273
L68.2776 66.3482
" />
<path d="M68.2776 66.3482
L68.2776 66.6506
" />
<path d="M68.2776 66.6506
L68.2171 66.7716
" />
<path d="M68.2171 66.7716
L68.1566 66.8321
" />
<path d="M68.1566 66.8321
L68.0357 66.8925
" />
<path d="M68.0357 66.8925
L67.6728 66.8925
" />
<path d="M67.6728 66.8925
L67.5519 66.8321
" />
<path d="M67.5519 66.8321
L67.4914 66.7716
" />
</g></g>
<g style="fill:none; 
stroke:#840000; stroke-width:0.1524; stroke-opacity:1; 
stroke-linecap:round; stroke-linejoin:round;">
<path d="M66.0400 64.7700
L68.5800 64.7700
" />
</g>
<g style="fill:none; 
stroke:#006464; stroke-width:0.1524; stroke-opacity:1; 
stroke-linecap:round; stroke-linejoin:round;">
<text x="65.5320" y="65.4050"
textLength="7.5208" font-size="1.6933" lengthAdjust="spacingAndGlyphs"
text-anchor="end" opacity="0" stroke-opacity="0">SCL/D1</text>
<g class="stroked-text"><desc>SCL/D1</desc>
<path d="M58.3561 65.2891
L58.5375 65.3495
" />
<path d="M58.5375 65.3495
L58.8399 65.3495
" />
<path d="M58.8399 65.3495
L58.9608 65.2891
" />
<path d="M58.9608 65.2891
L59.0213 65.2286
" />
<path d="M59.0213 65.2286
L59.0818 65.1076
" />
<path d="M59.0818 65.1076
L59.0818 64.9867
" />
<path d="M59.0818 64.9867
L59.0213 64.8657
" />
<path d="M59.0213 64.8657
L58.9608 64.8052
" />
<path d="M58.9608 64.8052
L58.8399 64.7448
" />
<path d="M58.8399 64.7448
L58.5980 64.6843
" />
<path d="M58.5980 64.6843
L58.4770 64.6238
" />
<path d="M58.4770 64.6238
L58.4165 64.5633
" />
<path d="M58.4165 64.5633
L58.3561 64.4424
" />
<path d="M58.3561 64.4424
L58.3561 64.3214
" />
<path d="M58.3561 64.3214
L58.4165 64.2005
" />
<path d="M58.4165 64.2005
L58.4770 64.1400
" />
<path d="M58.4770 64.1400
L58.5980 64.0795
" />
<path d="M58.5980 64.0795
L58.9003 64.0795
" />
<path d="M58.9003 64.0795
L59.0818 64.1400
" />
<path d="M60.3517 65.2286
L60.2913 65.2891
" />
<path d="M60.2913 65.2891
L60.1098 65.3495
" />
<path d="M60.1098 65.3495
L59.9889 65.3495
" />
<path d="M59.9889 65.3495
L59.8075 65.2891
" />
<path d="M59.8075 65.2891
L59.6865 65.1681
" />
<path d="M59.6865 65.1681
L59.6260 65.0471
" />
<path d="M59.6260 65.0471
L59.5656 64.8052
" />
<path d="M59.5656 64.8052
L59.5656 64.6238
" />
<path d="M59.5656 64.6238
L59.6260 64.3819
" />
<path d="M59.6260 64.3819
L59.6865 64.2610
" />
<path d="M59.6865 64.2610
L59.8075 64.1400
" />
<path d="M59.8075 64.1400
L59.9889 64.0795
" />
<path d="M59.9889 64.0795
L60.1098 64.0795
" />
<path d="M60.1098 64.0795
L60.2913 64.1400
" />
<path d="M60.2913 64.1400
L60.3517 64.2005
" />
<path d="M61.5008 65.3495
L60.8960 65.3495
" />
<path d="M60.8960 65.3495
L60.8960 64.0795
" />
<path d="M62.8313 64.0191
L61.7427 65.6519
" />
<path d="M63.2546 65.3495
L63.2546 64.0795
" />
<path d="M63.2546 64.0795
L63.5570 64.0795
" />
<path d="M63.5570 64.0795
L63.7384 64.1400
" />
<path d="M63.7384 64.1400
L63.8594 64.2610
" />
<path d="M63.8594 64.2610
L63.9199 64.3819
" />
<path d="M63.9199 64.3819
L63.9803 64.6238
" />
<path d="M63.9803 64.6238
L63.9803 64.8052
" />
<path d="M63.9803 64.8052
L63.9199 65.0471
" />
<path d="M63.9199 65.0471
L63.8594 65.1681
" />
<path d="M63.8594 65.1681
L63.7384 65.2891
" />
<path d="M63.7384 65.2891
L63.5570 65.3495
" />
<path d="M63.5570 65.3495
L63.2546 65.3495
" />
<path d="M65.1899 65.3495
L64.4642 65.3495
" />
<path d="M64.8270 65.3495
L64.8270 64.0795
" />
<path d="M64.8270 64.0795
L64.7061 64.2610
" />
<path d="M64.7061 64.2610
L64.5851 64.3819
" />
<path d="M64.5851 64.3819
L64.4642 64.4424
" />
</g></g>
<g style="fill:none; 
stroke:#A90000; stroke-width:0.1524; stroke-opacity:1; 
stroke-linecap:round; stroke-linejoin:round;">
<text x="67.3100" y="64.5160"
textLength="2.6222" font-size="1.6933" lengthAdjust="spacingAndGlyphs"
text-anchor="middle" opacity="0" stroke-opacity="0">14</text>
<g class="stroked-text"><desc>14</desc>
<path d="M67.0681 64.3525
L66.3424 64.3525
" />
<path d="M66.7052 64.3525
L66.7052 63.0825
" />
<path d="M66.7052 63.0825
L66.5843 63.2640
" />
<path d="M66.5843 63.2640
L66.4633 63.3849
" />
<path d="M66.4633 63.3849
L66.3424 63.4454
" />
<path d="M68.1566 63.5059
L68.1566 64.3525
" />
<path d="M67.8542 63.0221
L67.5519 63.9292
" />
<path d="M67.5519 63.9292
L68.3380 63.9292
" />
</g></g>
<g style="fill:none; 
stroke:#840000; stroke-width:0.1524; stroke-opacity:1; 
stroke-linecap:round; stroke-linejoin:round;">
<path d="M50.8000 69.8500
L48.2600 69.8500
" />
</g>
<g style="fill:none; 
stroke:#006464; stroke-width:0.1524; stroke-opacity:1; 
stroke-linecap:round; stroke-linejoin:round;">
<text x="51.3080" y="70.4850"
textLength="2.6827" font-size="1.6933" lengthAdjust="spacingAndGlyphs"
text-anchor="start" opacity="0" stroke-opacity="0">RX</text>
<g class="stroked-text"><desc>RX</desc>
<path d="M52.4362 70.4295
L52.0129 69.8248
" />
<path d="M51.7105 70.4295
L51.7105 69.1595
" />
<path d="M51.7105 69.1595
L52.1943 69.1595
" />
<path d="M52.1943 69.1595
L52.3153 69.2200
" />
<path d="M52.3153 69.2200
L52.3758 69.2805
" />
<path d="M52.3758 69.2805
L52.4362 69.4014
" />
<path d="M52.4362 69.4014
L52.4362 69.5829
" />
<path d="M52.4362 69.5829
L52.3758 69.7038
" />
<path d="M52.3758 69.7038
L52.3153 69.7643
" />
<path d="M52.3153 69.7643
L52.1943 69.8248
" />
<path d="M52.1943 69.8248
L51.7105 69.8248
" />
<path d="M52.8596 69.1595
L53.7062 70.4295
" />
<path d="M53.7062 69.1595
L52.8596 70.4295
" />
</g></g>
<g style="fill:none; 
stroke:#A90000; stroke-width:0.1524; stroke-opacity:1; 
stroke-linecap:round; stroke-linejoin:round;">
<text x="49.5300" y="69.5960"
textLength="2.6222" font-size="1.6933" lengthAdjust="spacingAndGlyphs"
text-anchor="middle" opacity="0" stroke-opacity="0">15</text>
<g class="stroked-text"><desc>15</desc>
<path d="M49.2881 69.4325
L48.5624 69.4325
" />
<path d="M48.9252 69.4325
L48.9252 68.1625
" />
<path d="M48.9252 68.1625
L48.8043 68.3440
" />
<path d="M48.8043 68.3440
L48.6833 68.4649
" />
<path d="M48.6833 68.4649
L48.5624 68.5254
" />
<path d="M50.4371 68.1625
L49.8323 68.1625
" />
<path d="M49.8323 68.1625
L49.7719 68.7673
" />
<path d="M49.7719 68.7673
L49.8323 68.7068
" />
<path d="M49.8323 68.7068
L49.9533 68.6463
" />
<path d="M49.9533 68.6463
L50.2557 68.6463
" />
<path d="M50.2557 68.6463
L50.3766 68.7068
" />
<path d="M50.3766 68.7068
L50.4371 68.7673
" />
<path d="M50.4371 68.7673
L50.4976 68.8882
" />
<path d="M50.4976 68.8882
L50.4976 69.1906
" />
<path d="M50.4976 69.1906
L50.4371 69.3116
" />
<path d="M50.4371 69.3116
L50.3766 69.3721
" />
<path d="M50.3766 69.3721
L50.2557 69.4325
" />
<path d="M50.2557 69.4325
L49.9533 69.4325
" />
<path d="M49.9533 69.4325
L49.8323 69.3721
" />
<path d="M49.8323 69.3721
L49.7719 69.3116
" />
</g></g>
<g style="fill:none; 
stroke:#840000; stroke-width:0.1524; stroke-opacity:1; 
stroke-linecap:round; stroke-linejoin:round;">
<path d="M50.8000 72.3900
L48.2600 72.3900
" />
</g>
<g style="fill:none; 
stroke:#006464; stroke-width:0.1524; stroke-opacity:1; 
stroke-linecap:round; stroke-linejoin:round;">
<text x="51.3080" y="73.0250"
textLength="2.3803" font-size="1.6933" lengthAdjust="spacingAndGlyphs"
text-anchor="start" opacity="0" stroke-opacity="0">TX</text>
<g class="stroked-text"><desc>TX</desc>
<path d="M51.5291 71.6995
L52.2548 71.6995
" />
<path d="M51.8920 72.9695
L51.8920 71.6995
" />
<path d="M52.5572 71.6995
L53.4038 72.9695
" />
<path d="M53.4038 71.6995
L52.5572 72.9695
" />
</g></g>
<g style="fill:none; 
stroke:#A90000; stroke-width:0.1524; stroke-opacity:1; 
stroke-linecap:round; stroke-linejoin:round;">
<text x="49.5300" y="72.1360"
textLength="2.6222" font-size="1.6933" lengthAdjust="spacingAndGlyphs"
text-anchor="middle" opacity="0" stroke-opacity="0">16</text>
<g class="stroked-text"><desc>16</desc>
<path d="M49.2881 71.9725
L48.5624 71.9725
" />
<path d="M48.9252 71.9725
L48.9252 70.7025
" />
<path d="M48.9252 70.7025
L48.8043 70.8840
" />
<path d="M48.8043 70.8840
L48.6833 71.0049
" />
<path d="M48.6833 71.0049
L48.5624 71.0654
" />
<path d="M50.3766 70.7025
L50.1347 70.7025
" />
<path d="M50.1347 70.7025
L50.0138 70.7630
" />
<path d="M50.0138 70.7630
L49.9533 70.8235
" />
<path d="M49.9533 70.8235
L49.8323 71.0049
" />
<path d="M49.8323 71.0049
L49.7719 71.2468
" />
<path d="M49.7719 71.2468
L49.7719 71.7306
" />
<path d="M49.7719 71.7306
L49.8323 71.8516
" />
<path d="M49.8323 71.8516
L49.8928 71.9121
" />
<path d="M49.8928 71.9121
L50.0138 71.9725
" />
<path d="M50.0138 71.9725
L50.2557 71.9725
" />
<path d="M50.2557 71.9725
L50.3766 71.9121
" />
<path d="M50.3766 71.9121
L50.4371 71.8516
" />
<path d="M50.4371 71.8516
L50.4976 71.7306
" />
<path d="M50.4976 71.7306
L50.4976 71.4282
" />
<path d="M50.4976 71.4282
L50.4371 71.3073
" />
<path d="M50.4371 71.3073
L50.3766 71.2468
" />
<path d="M50.3766 71.2468
L50.2557 71.1863
" />
<path d="M50.2557 71.1863
L50.0138 71.1863
" />
<path d="M50.0138 71.1863
L49.8928 71.2468
" />
<path d="M49.8928 71.2468
L49.8323 71.3073
" />
<path d="M49.8323 71.3073
L49.7719 71.4282
" />
</g></g>
<g style="fill:none; 
stroke:#840000; stroke-width:0.1524; stroke-opacity:1; 
stroke-linecap:round; stroke-linejoin:round;">
<path d="M66.0400 59.6900
L68.5800 59.6900
" />
</g>
<g style="fill:none; 
stroke:#006464; stroke-width:0.1524; stroke-opacity:1; 
stroke-linecap:round; stroke-linejoin:round;">
<text x="65.5320" y="60.3250"
textLength="2.5013" font-size="1.6933" lengthAdjust="spacingAndGlyphs"
text-anchor="end" opacity="0" stroke-opacity="0">A0</text>
<g class="stroked-text"><desc>A0</desc>
<path d="M63.3756 59.9067
L63.9803 59.9067
" />
<path d="M63.2546 60.2695
L63.6779 58.9995
" />
<path d="M63.6779 58.9995
L64.1013 60.2695
" />
<path d="M64.7665 58.9995
L64.8875 58.9995
" />
<path d="M64.8875 58.9995
L65.0084 59.0600
" />
<path d="M65.0084 59.0600
L65.0689 59.1205
" />
<path d="M65.0689 59.1205
L65.1294 59.2414
" />
<path d="M65.1294 59.2414
L65.1899 59.4833
" />
<path d="M65.1899 59.4833
L65.1899 59.7857
" />
<path d="M65.1899 59.7857
L65.1294 60.0276
" />
<path d="M65.1294 60.0276
L65.0689 60.1486
" />
<path d="M65.0689 60.1486
L65.0084 60.2091
" />
<path d="M65.0084 60.2091
L64.8875 60.2695
" />
<path d="M64.8875 60.2695
L64.7665 60.2695
" />
<path d="M64.7665 60.2695
L64.6456 60.2091
" />
<path d="M64.6456 60.2091
L64.5851 60.1486
" />
<path d="M64.5851 60.1486
L64.5246 60.0276
" />
<path d="M64.5246 60.0276
L64.4642 59.7857
" />
<path d="M64.4642 59.7857
L64.4642 59.4833
" />
<path d="M64.4642 59.4833
L64.5246 59.2414
" />
<path d="M64.5246 59.2414
L64.5851 59.1205
" />
<path d="M64.5851 59.1205
L64.6456 59.0600
" />
<path d="M64.6456 59.0600
L64.7665 58.9995
" />
</g></g>
<g style="fill:none; 
stroke:#A90000; stroke-width:0.1524; stroke-opacity:1; 
stroke-linecap:round; stroke-linejoin:round;">
<text x="67.3100" y="59.4360"
textLength="1.4127" font-size="1.6933" lengthAdjust="spacingAndGlyphs"
text-anchor="middle" opacity="0" stroke-opacity="0">2</text>
<g class="stroked-text"><desc>2</desc>
<path d="M66.9472 58.1235
L67.0076 58.0630
" />
<path d="M67.0076 58.0630
L67.1286 58.0025
" />
<path d="M67.1286 58.0025
L67.4310 58.0025
" />
<path d="M67.4310 58.0025
L67.5519 58.0630
" />
<path d="M67.5519 58.0630
L67.6124 58.1235
" />
<path d="M67.6124 58.1235
L67.6729 58.2444
" />
<path d="M67.6729 58.2444
L67.6729 58.3654
" />
<path d="M67.6729 58.3654
L67.6124 58.5468
" />
<path d="M67.6124 58.5468
L66.8867 59.2725
" />
<path d="M66.8867 59.2725
L67.6729 59.2725
" />
</g></g>
<g style="fill:none; 
stroke:#840000; stroke-width:0.1524; stroke-opacity:1; 
stroke-linecap:round; stroke-linejoin:round;">
<path d="M66.0400 62.2300
L68.5800 62.2300
" />
</g>
<g style="fill:none; 
stroke:#006464; stroke-width:0.1524; stroke-opacity:1; 
stroke-linecap:round; stroke-linejoin:round;">
<text x="65.5320" y="62.8650"
textLength="2.6827" font-size="1.6933" lengthAdjust="spacingAndGlyphs"
text-anchor="end" opacity="0" stroke-opacity="0">D0</text>
<g class="stroked-text"><desc>D0</desc>
<path d="M63.2546 62.8095
L63.2546 61.5395
" />
<path d="M63.2546 61.5395
L63.5570 61.5395
" />
<path d="M63.5570 61.5395
L63.7384 61.6000
" />
<path d="M63.7384 61.6000
L63.8594 61.7210
" />
<path d="M63.8594 61.7210
L63.9199 61.8419
" />
<path d="M63.9199 61.8419
L63.9803 62.0838
" />
<path d="M63.9803 62.0838
L63.9803 62.2652
" />
<path d="M63.9803 62.2652
L63.9199 62.5071
" />
<path d="M63.9199 62.5071
L63.8594 62.6281
" />
<path d="M63.8594 62.6281
L63.7384 62.7491
" />
<path d="M63.7384 62.7491
L63.5570 62.8095
" />
<path d="M63.5570 62.8095
L63.2546 62.8095
" />
<path d="M64.7665 61.5395
L64.8875 61.5395
" />
<path d="M64.8875 61.5395
L65.0084 61.6000
" />
<path d="M65.0084 61.6000
L65.0689 61.6605
" />
<path d="M65.0689 61.6605
L65.1294 61.7814
" />
<path d="M65.1294 61.7814
L65.1899 62.0233
" />
<path d="M65.1899 62.0233
L65.1899 62.3257
" />
<path d="M65.1899 62.3257
L65.1294 62.5676
" />
<path d="M65.1294 62.5676
L65.0689 62.6886
" />
<path d="M65.0689 62.6886
L65.0084 62.7491
" />
<path d="M65.0084 62.7491
L64.8875 62.8095
" />
<path d="M64.8875 62.8095
L64.7665 62.8095
" />
<path d="M64.7665 62.8095
L64.6456 62.7491
" />
<path d="M64.6456 62.7491
L64.5851 62.6886
" />
<path d="M64.5851 62.6886
L64.5246 62.5676
" />
<path d="M64.5246 62.5676
L64.4642 62.3257
" />
<path d="M64.4642 62.3257
L64.4642 62.0233
" />
<path d="M64.4642 62.0233
L64.5246 61.7814
" />
<path d="M64.5246 61.7814
L64.5851 61.6605
" />
<path d="M64.5851 61.6605
L64.6456 61.6000
" />
<path d="M64.6456 61.6000
L64.7665 61.5395
" />
</g></g>
<g style="fill:none; 
stroke:#A90000; stroke-width:0.1524; stroke-opacity:1; 
stroke-linecap:round; stroke-linejoin:round;">
<text x="67.3100" y="61.9760"
textLength="1.4127" font-size="1.6933" lengthAdjust="spacingAndGlyphs"
text-anchor="middle" opacity="0" stroke-opacity="0">3</text>
<g class="stroked-text"><desc>3</desc>
<path d="M66.8867 60.5425
L67.6729 60.5425
" />
<path d="M67.6729 60.5425
L67.2495 61.0263
" />
<path d="M67.2495 61.0263
L67.4310 61.0263
" />
<path d="M67.4310 61.0263
L67.5519 61.0868
" />
<path d="M67.5519 61.0868
L67.6124 61.1473
" />
<path d="M67.6124 61.1473
L67.6729 61.2682
" />
<path d="M67.6729 61.2682
L67.6729 61.5706
" />
<path d="M67.6729 61.5706
L67.6124 61.6916
" />
<path d="M67.6124 61.6916
L67.5519 61.7521
" />
<path d="M67.5519 61.7521
L67.4310 61.8125
" />
<path d="M67.4310 61.8125
L67.0681 61.8125
" />
<path d="M67.0681 61.8125
L66.9472 61.7521
" />
<path d="M66.9472 61.7521
L66.8867 61.6916
" />
</g></g>
<g style="fill:none; 
stroke:#840000; stroke-width:0.1524; stroke-opacity:1; 
stroke-linecap:round; stroke-linejoin:round;">
<path d="M66.0400 74.9300
L68.5800 74.9300
" />
</g>
<g style="fill:none; 
stroke:#006464; stroke-width:0.1524; stroke-opacity:1; 
stroke-linecap:round; stroke-linejoin:round;">
<text x="65.5320" y="75.5650"
textLength="7.7627" font-size="1.6933" lengthAdjust="spacingAndGlyphs"
text-anchor="end" opacity="0" stroke-opacity="0">SCK/D5</text>
<g class="stroked-text"><desc>SCK/D5</desc>
<path d="M58.1142 75.4491
L58.2956 75.5095
" />
<path d="M58.2956 75.5095
L58.5980 75.5095
" />
<path d="M58.5980 75.5095
L58.7189 75.4491
" />
<path d="M58.7189 75.4491
L58.7794 75.3886
" />
<path d="M58.7794 75.3886
L58.8399 75.2676
" />
<path d="M58.8399 75.2676
L58.8399 75.1467
" />
<path d="M58.8399 75.1467
L58.7794 75.0257
" />
<path d="M58.7794 75.0257
L58.7189 74.9652
" />
<path d="M58.7189 74.9652
L58.5980 74.9048
" />
<path d="M58.5980 74.9048
L58.3561 74.8443
" />
<path d="M58.3561 74.8443
L58.2351 74.7838
" />
<path d="M58.2351 74.7838
L58.1746 74.7233
" />
<path d="M58.1746 74.7233
L58.1142 74.6024
" />
<path d="M58.1142 74.6024
L58.1142 74.4814
" />
<path d="M58.1142 74.4814
L58.1746 74.3605
" />
<path d="M58.1746 74.3605
L58.2351 74.3000
" />
<path d="M58.2351 74.3000
L58.3561 74.2395
" />
<path d="M58.3561 74.2395
L58.6584 74.2395
" />
<path d="M58.6584 74.2395
L58.8399 74.3000
" />
<path d="M60.1098 75.3886
L60.0494 75.4491
" />
<path d="M60.0494 75.4491
L59.8679 75.5095
" />
<path d="M59.8679 75.5095
L59.7470 75.5095
" />
<path d="M59.7470 75.5095
L59.5656 75.4491
" />
<path d="M59.5656 75.4491
L59.4446 75.3281
" />
<path d="M59.4446 75.3281
L59.3841 75.2071
" />
<path d="M59.3841 75.2071
L59.3237 74.9652
" />
<path d="M59.3237 74.9652
L59.3237 74.7838
" />
<path d="M59.3237 74.7838
L59.3841 74.5419
" />
<path d="M59.3841 74.5419
L59.4446 74.4210
" />
<path d="M59.4446 74.4210
L59.5656 74.3000
" />
<path d="M59.5656 74.3000
L59.7470 74.2395
" />
<path d="M59.7470 74.2395
L59.8679 74.2395
" />
<path d="M59.8679 74.2395
L60.0494 74.3000
" />
<path d="M60.0494 74.3000
L60.1098 74.3605
" />
<path d="M60.6541 75.5095
L60.6541 74.2395
" />
<path d="M61.3798 75.5095
L60.8356 74.7838
" />
<path d="M61.3798 74.2395
L60.6541 74.9652
" />
<path d="M62.8313 74.1791
L61.7427 75.8119
" />
<path d="M63.2546 75.5095
L63.2546 74.2395
" />
<path d="M63.2546 74.2395
L63.5570 74.2395
" />
<path d="M63.5570 74.2395
L63.7384 74.3000
" />
<path d="M63.7384 74.3000
L63.8594 74.4210
" />
<path d="M63.8594 74.4210
L63.9199 74.5419
" />
<path d="M63.9199 74.5419
L63.9803 74.7838
" />
<path d="M63.9803 74.7838
L63.9803 74.9652
" />
<path d="M63.9803 74.9652
L63.9199 75.2071
" />
<path d="M63.9199 75.2071
L63.8594 75.3281
" />
<path d="M63.8594 75.3281
L63.7384 75.4491
" />
<path d="M63.7384 75.4491
L63.5570 75.5095
" />
<path d="M63.5570 75.5095
L63.2546 75.5095
" />
<path d="M65.1294 74.2395
L64.5246 74.2395
" />
<path d="M64.5246 74.2395
L64.4642 74.8443
" />
<path d="M64.4642 74.8443
L64.5246 74.7838
" />
<path d="M64.5246 74.7838
L64.6456 74.7233
" />
<path d="M64.6456 74.7233
L64.9480 74.7233
" />
<path d="M64.9480 74.7233
L65.0689 74.7838
" />
<path d="M65.0689 74.7838
L65.1294 74.8443
" />
<path d="M65.1294 74.8443
L65.1899 74.9652
" />
<path d="M65.1899 74.9652
L65.1899 75.2676
" />
<path d="M65.1899 75.2676
L65.1294 75.3886
" />
<path d="M65.1294 75.3886
L65.0689 75.4491
" />
<path d="M65.0689 75.4491
L64.9480 75.5095
" />
<path d="M64.9480 75.5095
L64.6456 75.5095
" />
<path d="M64.6456 75.5095
L64.5246 75.4491
" />
<path d="M64.5246 75.4491
L64.4642 75.3886
" />
</g></g>
<g style="fill:none; 
stroke:#A90000; stroke-width:0.1524; stroke-opacity:1; 
stroke-linecap:round; stroke-linejoin:round;">
<text x="67.3100" y="74.6760"
textLength="1.4127" font-size="1.6933" lengthAdjust="spacingAndGlyphs"
text-anchor="middle" opacity="0" stroke-opacity="0">4</text>
<g class="stroked-text"><desc>4</desc>
<path d="M67.5519 73.6659
L67.5519 74.5125
" />
<path d="M67.2495 73.1821
L66.9472 74.0892
" />
<path d="M66.9472 74.0892
L67.7333 74.0892
" />
</g></g>
<g style="fill:none; 
stroke:#840000; stroke-width:0.1524; stroke-opacity:1; 
stroke-linecap:round; stroke-linejoin:round;">
<path d="M66.0400 77.4700
L68.5800 77.4700
" />
</g>
<g style="fill:none; 
stroke:#006464; stroke-width:0.1524; stroke-opacity:1; 
stroke-linecap:round; stroke-linejoin:round;">
<text x="65.5320" y="78.1050"
textLength="8.6094" font-size="1.6933" lengthAdjust="spacingAndGlyphs"
text-anchor="end" opacity="0" stroke-opacity="0">MISO/D6</text>
<g class="stroked-text"><desc>MISO/D6</desc>
<path d="M57.3279 78.0495
L57.3279 76.7795
" />
<path d="M57.3279 76.7795
L57.7513 77.6867
" />
<path d="M57.7513 77.6867
L58.1746 76.7795
" />
<path d="M58.1746 76.7795
L58.1746 78.0495
" />
<path d="M58.7793 78.0495
L58.7793 76.7795
" />
<path d="M59.3237 77.9891
L59.5051 78.0495
" />
<path d="M59.5051 78.0495
L59.8075 78.0495
" />
<path d="M59.8075 78.0495
L59.9284 77.9891
" />
<path d="M59.9284 77.9891
L59.9889 77.9286
" />
<path d="M59.9889 77.9286
L60.0494 77.8076
" />
<path d="M60.0494 77.8076
L60.0494 77.6867
" />
<path d="M60.0494 77.6867
L59.9889 77.5657
" />
<path d="M59.9889 77.5657
L59.9284 77.5052
" />
<path d="M59.9284 77.5052
L59.8075 77.4448
" />
<path d="M59.8075 77.4448
L59.5656 77.3843
" />
<path d="M59.5656 77.3843
L59.4446 77.3238
" />
<path d="M59.4446 77.3238
L59.3841 77.2633
" />
<path d="M59.3841 77.2633
L59.3237 77.1424
" />
<path d="M59.3237 77.1424
L59.3237 77.0214
" />
<path d="M59.3237 77.0214
L59.3841 76.9005
" />
<path d="M59.3841 76.9005
L59.4446 76.8400
" />
<path d="M59.4446 76.8400
L59.5656 76.7795
" />
<path d="M59.5656 76.7795
L59.8679 76.7795
" />
<path d="M59.8679 76.7795
L60.0494 76.8400
" />
<path d="M60.8355 76.7795
L61.0774 76.7795
" />
<path d="M61.0774 76.7795
L61.1984 76.8400
" />
<path d="M61.1984 76.8400
L61.3193 76.9610
" />
<path d="M61.3193 76.9610
L61.3798 77.2029
" />
<path d="M61.3798 77.2029
L61.3798 77.6262
" />
<path d="M61.3798 77.6262
L61.3193 77.8681
" />
<path d="M61.3193 77.8681
L61.1984 77.9891
" />
<path d="M61.1984 77.9891
L61.0774 78.0495
" />
<path d="M61.0774 78.0495
L60.8355 78.0495
" />
<path d="M60.8355 78.0495
L60.7146 77.9891
" />
<path d="M60.7146 77.9891
L60.5936 77.8681
" />
<path d="M60.5936 77.8681
L60.5332 77.6262
" />
<path d="M60.5332 77.6262
L60.5332 77.2029
" />
<path d="M60.5332 77.2029
L60.5936 76.9610
" />
<path d="M60.5936 76.9610
L60.7146 76.8400
" />
<path d="M60.7146 76.8400
L60.8355 76.7795
" />
<path d="M62.8313 76.7191
L61.7427 78.3519
" />
<path d="M63.2546 78.0495
L63.2546 76.7795
" />
<path d="M63.2546 76.7795
L63.5570 76.7795
" />
<path d="M63.5570 76.7795
L63.7384 76.8400
" />
<path d="M63.7384 76.8400
L63.8594 76.9610
" />
<path d="M63.8594 76.9610
L63.9199 77.0819
" />
<path d="M63.9199 77.0819
L63.9803 77.3238
" />
<path d="M63.9803 77.3238
L63.9803 77.5052
" />
<path d="M63.9803 77.5052
L63.9199 77.7471
" />
<path d="M63.9199 77.7471
L63.8594 77.8681
" />
<path d="M63.8594 77.8681
L63.7384 77.9891
" />
<path d="M63.7384 77.9891
L63.5570 78.0495
" />
<path d="M63.5570 78.0495
L63.2546 78.0495
" />
<path d="M65.0689 76.7795
L64.8270 76.7795
" />
<path d="M64.8270 76.7795
L64.7061 76.8400
" />
<path d="M64.7061 76.8400
L64.6456 76.9005
" />
<path d="M64.6456 76.9005
L64.5246 77.0819
" />
<path d="M64.5246 77.0819
L64.4642 77.3238
" />
<path d="M64.4642 77.3238
L64.4642 77.8076
" />
<path d="M64.4642 77.8076
L64.5246 77.9286
" />
<path d="M64.5246 77.9286
L64.5851 77.9891
" />
<path d="M64.5851 77.9891
L64.7061 78.0495
" />
<path d="M64.7061 78.0495
L64.9480 78.0495
" />
<path d="M64.9480 78.0495
L65.0689 77.9891
" />
<path d="M65.0689 77.9891
L65.1294 77.9286
" />
<path d="M65.1294 77.9286
L65.1899 77.8076
" />
<path d="M65.1899 77.8076
L65.1899 77.5052
" />
<path d="M65.1899 77.5052
L65.1294 77.3843
" />
<path d="M65.1294 77.3843
L65.0689 77.3238
" />
<path d="M65.0689 77.3238
L64.9480 77.2633
" />
<path d="M64.9480 77.2633
L64.7061 77.2633
" />
<path d="M64.7061 77.2633
L64.5851 77.3238
" />
<path d="M64.5851 77.3238
L64.5246 77.3843
" />
<path d="M64.5246 77.3843
L64.4642 77.5052
" />
</g></g>
<g style="fill:none; 
stroke:#A90000; stroke-width:0.1524; stroke-opacity:1; 
stroke-linecap:round; stroke-linejoin:round;">
<text x="67.3100" y="77.2160"
textLength="1.4127" font-size="1.6933" lengthAdjust="spacingAndGlyphs"
text-anchor="middle" opacity="0" stroke-opacity="0">5</text>
<g class="stroked-text"><desc>5</desc>
<path d="M67.6124 75.7825
L67.0076 75.7825
" />
<path d="M67.0076 75.7825
L66.9472 76.3873
" />
<path d="M66.9472 76.3873
L67.0076 76.3268
" />
<path d="M67.0076 76.3268
L67.1286 76.2663
" />
<path d="M67.1286 76.2663
L67.4310 76.2663
" />
<path d="M67.4310 76.2663
L67.5519 76.3268
" />
<path d="M67.5519 76.3268
L67.6124 76.3873
" />
<path d="M67.6124 76.3873
L67.6729 76.5082
" />
<path d="M67.6729 76.5082
L67.6729 76.8106
" />
<path d="M67.6729 76.8106
L67.6124 76.9316
" />
<path d="M67.6124 76.9316
L67.5519 76.9921
" />
<path d="M67.5519 76.9921
L67.4310 77.0525
" />
<path d="M67.4310 77.0525
L67.1286 77.0525
" />
<path d="M67.1286 77.0525
L67.0076 76.9921
" />
<path d="M67.0076 76.9921
L66.9472 76.9316
" />
</g></g>
<g style="fill:none; 
stroke:#840000; stroke-width:0.1524; stroke-opacity:1; 
stroke-linecap:round; stroke-linejoin:round;">
<path d="M66.0400 80.0100
L68.5800 80.0100
" />
</g>
<g style="fill:none; 
stroke:#006464; stroke-width:0.1524; stroke-opacity:1; 
stroke-linecap:round; stroke-linejoin:round;">
<text x="65.5320" y="80.6450"
textLength="8.6094" font-size="1.6933" lengthAdjust="spacingAndGlyphs"
text-anchor="end" opacity="0" stroke-opacity="0">MOSI/D7</text>
<g class="stroked-text"><desc>MOSI/D7</desc>
<path d="M57.3279 80.5895
L57.3279 79.3195
" />
<path d="M57.3279 79.3195
L57.7513 80.2267
" />
<path d="M57.7513 80.2267
L58.1746 79.3195
" />
<path d="M58.1746 79.3195
L58.1746 80.5895
" />
<path d="M59.0212 79.3195
L59.2631 79.3195
" />
<path d="M59.2631 79.3195
L59.3841 79.3800
" />
<path d="M59.3841 79.3800
L59.5050 79.5010
" />
<path d="M59.5050 79.5010
L59.5655 79.7429
" />
<path d="M59.5655 79.7429
L59.5655 80.1662
" />
<path d="M59.5655 80.1662
L59.5050 80.4081
" />
<path d="M59.5050 80.4081
L59.3841 80.5291
" />
<path d="M59.3841 80.5291
L59.2631 80.5895
" />
<path d="M59.2631 80.5895
L59.0212 80.5895
" />
<path d="M59.0212 80.5895
L58.9003 80.5291
" />
<path d="M58.9003 80.5291
L58.7793 80.4081
" />
<path d="M58.7793 80.4081
L58.7189 80.1662
" />
<path d="M58.7189 80.1662
L58.7189 79.7429
" />
<path d="M58.7189 79.7429
L58.7793 79.5010
" />
<path d="M58.7793 79.5010
L58.9003 79.3800
" />
<path d="M58.9003 79.3800
L59.0212 79.3195
" />
<path d="M60.0494 80.5291
L60.2308 80.5895
" />
<path d="M60.2308 80.5895
L60.5332 80.5895
" />
<path d="M60.5332 80.5895
L60.6541 80.5291
" />
<path d="M60.6541 80.5291
L60.7146 80.4686
" />
<path d="M60.7146 80.4686
L60.7751 80.3476
" />
<path d="M60.7751 80.3476
L60.7751 80.2267
" />
<path d="M60.7751 80.2267
L60.7146 80.1057
" />
<path d="M60.7146 80.1057
L60.6541 80.0452
" />
<path d="M60.6541 80.0452
L60.5332 79.9848
" />
<path d="M60.5332 79.9848
L60.2913 79.9243
" />
<path d="M60.2913 79.9243
L60.1703 79.8638
" />
<path d="M60.1703 79.8638
L60.1098 79.8033
" />
<path d="M60.1098 79.8033
L60.0494 79.6824
" />
<path d="M60.0494 79.6824
L60.0494 79.5614
" />
<path d="M60.0494 79.5614
L60.1098 79.4405
" />
<path d="M60.1098 79.4405
L60.1703 79.3800
" />
<path d="M60.1703 79.3800
L60.2913 79.3195
" />
<path d="M60.2913 79.3195
L60.5936 79.3195
" />
<path d="M60.5936 79.3195
L60.7751 79.3800
" />
<path d="M61.3193 80.5895
L61.3193 79.3195
" />
<path d="M62.8313 79.2591
L61.7427 80.8919
" />
<path d="M63.2546 80.5895
L63.2546 79.3195
" />
<path d="M63.2546 79.3195
L63.5570 79.3195
" />
<path d="M63.5570 79.3195
L63.7384 79.3800
" />
<path d="M63.7384 79.3800
L63.8594 79.5010
" />
<path d="M63.8594 79.5010
L63.9199 79.6219
" />
<path d="M63.9199 79.6219
L63.9803 79.8638
" />
<path d="M63.9803 79.8638
L63.9803 80.0452
" />
<path d="M63.9803 80.0452
L63.9199 80.2871
" />
<path d="M63.9199 80.2871
L63.8594 80.4081
" />
<path d="M63.8594 80.4081
L63.7384 80.5291
" />
<path d="M63.7384 80.5291
L63.5570 80.5895
" />
<path d="M63.5570 80.5895
L63.2546 80.5895
" />
<path d="M64.4037 79.3195
L65.2503 79.3195
" />
<path d="M65.2503 79.3195
L64.7061 80.5895
" />
</g></g>
<g style="fill:none; 
stroke:#A90000; stroke-width:0.1524; stroke-opacity:1; 
stroke-linecap:round; stroke-linejoin:round;">
<text x="67.3100" y="79.7560"
textLength="1.4127" font-size="1.6933" lengthAdjust="spacingAndGlyphs"
text-anchor="middle" opacity="0" stroke-opacity="0">6</text>
<g class="stroked-text"><desc>6</desc>
<path d="M67.5519 78.3225
L67.3100 78.3225
" />
<path d="M67.3100 78.3225
L67.1891 78.3830
" />
<path d="M67.1891 78.3830
L67.1286 78.4435
" />
<path d="M67.1286 78.4435
L67.0076 78.6249
" />
<path d="M67.0076 78.6249
L66.9472 78.8668
" />
<path d="M66.9472 78.8668
L66.9472 79.3506
" />
<path d="M66.9472 79.3506
L67.0076 79.4716
" />
<path d="M67.0076 79.4716
L67.0681 79.5321
" />
<path d="M67.0681 79.5321
L67.1891 79.5925
" />
<path d="M67.1891 79.5925
L67.4310 79.5925
" />
<path d="M67.4310 79.5925
L67.5519 79.5321
" />
<path d="M67.5519 79.5321
L67.6124 79.4716
" />
<path d="M67.6124 79.4716
L67.6729 79.3506
" />
<path d="M67.6729 79.3506
L67.6729 79.0482
" />
<path d="M67.6729 79.0482
L67.6124 78.9273
" />
<path d="M67.6124 78.9273
L67.5519 78.8668
" />
<path d="M67.5519 78.8668
L67.4310 78.8063
" />
<path d="M67.4310 78.8063
L67.1891 78.8063
" />
<path d="M67.1891 78.8063
L67.0681 78.8668
" />
<path d="M67.0681 78.8668
L67.0076 78.9273
" />
<path d="M67.0076 78.9273
L66.9472 79.0482
" />
</g></g>
<g style="fill:none; 
stroke:#840000; stroke-width:0.1524; stroke-opacity:1; 
stroke-linecap:round; stroke-linejoin:round;">
<path d="M66.0400 82.5500
L68.5800 82.5500
" />
</g>
<g style="fill:none; 
stroke:#006464; stroke-width:0.1524; stroke-opacity:1; 
stroke-linecap:round; stroke-linejoin:round;">
<text x="65.5320" y="83.1850"
textLength="6.4927" font-size="1.6933" lengthAdjust="spacingAndGlyphs"
text-anchor="end" opacity="0" stroke-opacity="0">CS/D8</text>
<g class="stroked-text"><desc>CS/D8</desc>
<path d="M60.1703 83.0086
L60.1099 83.0691
" />
<path d="M60.1099 83.0691
L59.9284 83.1295
" />
<path d="M59.9284 83.1295
L59.8075 83.1295
" />
<path d="M59.8075 83.1295
L59.6261 83.0691
" />
<path d="M59.6261 83.0691
L59.5051 82.9481
" />
<path d="M59.5051 82.9481
L59.4446 82.8271
" />
<path d="M59.4446 82.8271
L59.3842 82.5852
" />
<path d="M59.3842 82.5852
L59.3842 82.4038
" />
<path d="M59.3842 82.4038
L59.4446 82.1619
" />
<path d="M59.4446 82.1619
L59.5051 82.0410
" />
<path d="M59.5051 82.0410
L59.6261 81.9200
" />
<path d="M59.6261 81.9200
L59.8075 81.8595
" />
<path d="M59.8075 81.8595
L59.9284 81.8595
" />
<path d="M59.9284 81.8595
L60.1099 81.9200
" />
<path d="M60.1099 81.9200
L60.1703 81.9805
" />
<path d="M60.6542 83.0691
L60.8356 83.1295
" />
<path d="M60.8356 83.1295
L61.1380 83.1295
" />
<path d="M61.1380 83.1295
L61.2589 83.0691
" />
<path d="M61.2589 83.0691
L61.3194 83.0086
" />
<path d="M61.3194 83.0086
L61.3799 82.8876
" />
<path d="M61.3799 82.8876
L61.3799 82.7667
" />
<path d="M61.3799 82.7667
L61.3194 82.6457
" />
<path d="M61.3194 82.6457
L61.2589 82.5852
" />
<path d="M61.2589 82.5852
L61.1380 82.5248
" />
<path d="M61.1380 82.5248
L60.8961 82.4643
" />
<path d="M60.8961 82.4643
L60.7751 82.4038
" />
<path d="M60.7751 82.4038
L60.7146 82.3433
" />
<path d="M60.7146 82.3433
L60.6542 82.2224
" />
<path d="M60.6542 82.2224
L60.6542 82.1014
" />
<path d="M60.6542 82.1014
L60.7146 81.9805
" />
<path d="M60.7146 81.9805
L60.7751 81.9200
" />
<path d="M60.7751 81.9200
L60.8961 81.8595
" />
<path d="M60.8961 81.8595
L61.1984 81.8595
" />
<path d="M61.1984 81.8595
L61.3799 81.9200
" />
<path d="M62.8313 81.7991
L61.7427 83.4319
" />
<path d="M63.2546 83.1295
L63.2546 81.8595
" />
<path d="M63.2546 81.8595
L63.5570 81.8595
" />
<path d="M63.5570 81.8595
L63.7384 81.9200
" />
<path d="M63.7384 81.9200
L63.8594 82.0410
" />
<path d="M63.8594 82.0410
L63.9199 82.1619
" />
<path d="M63.9199 82.1619
L63.9803 82.4038
" />
<path d="M63.9803 82.4038
L63.9803 82.5852
" />
<path d="M63.9803 82.5852
L63.9199 82.8271
" />
<path d="M63.9199 82.8271
L63.8594 82.9481
" />
<path d="M63.8594 82.9481
L63.7384 83.0691
" />
<path d="M63.7384 83.0691
L63.5570 83.1295
" />
<path d="M63.5570 83.1295
L63.2546 83.1295
" />
<path d="M64.7061 82.4038
L64.5851 82.3433
" />
<path d="M64.5851 82.3433
L64.5246 82.2829
" />
<path d="M64.5246 82.2829
L64.4642 82.1619
" />
<path d="M64.4642 82.1619
L64.4642 82.1014
" />
<path d="M64.4642 82.1014
L64.5246 81.9805
" />
<path d="M64.5246 81.9805
L64.5851 81.9200
" />
<path d="M64.5851 81.9200
L64.7061 81.8595
" />
<path d="M64.7061 81.8595
L64.9480 81.8595
" />
<path d="M64.9480 81.8595
L65.0689 81.9200
" />
<path d="M65.0689 81.9200
L65.1294 81.9805
" />
<path d="M65.1294 81.9805
L65.1899 82.1014
" />
<path d="M65.1899 82.1014
L65.1899 82.1619
" />
<path d="M65.1899 82.1619
L65.1294 82.2829
" />
<path d="M65.1294 82.2829
L65.0689 82.3433
" />
<path d="M65.0689 82.3433
L64.9480 82.4038
" />
<path d="M64.9480 82.4038
L64.7061 82.4038
" />
<path d="M64.7061 82.4038
L64.5851 82.4643
" />
<path d="M64.5851 82.4643
L64.5246 82.5248
" />
<path d="M64.5246 82.5248
L64.4642 82.6457
" />
<path d="M64.4642 82.6457
L64.4642 82.8876
" />
<path d="M64.4642 82.8876
L64.5246 83.0086
" />
<path d="M64.5246 83.0086
L64.5851 83.0691
" />
<path d="M64.5851 83.0691
L64.7061 83.1295
" />
<path d="M64.7061 83.1295
L64.9480 83.1295
" />
<path d="M64.9480 83.1295
L65.0689 83.0691
" />
<path d="M65.0689 83.0691
L65.1294 83.0086
" />
<path d="M65.1294 83.0086
L65.1899 82.8876
" />
<path d="M65.1899 82.8876
L65.1899 82.6457
" />
<path d="M65.1899 82.6457
L65.1294 82.5248
" />
<path d="M65.1294 82.5248
L65.0689 82.4643
" />
<path d="M65.0689 82.4643
L64.9480 82.4038
" />
</g></g>
<g style="fill:none; 
stroke:#A90000; stroke-width:0.1524; stroke-opacity:1; 
stroke-linecap:round; stroke-linejoin:round;">
<text x="67.3100" y="82.2960"
textLength="1.4127" font-size="1.6933" lengthAdjust="spacingAndGlyphs"
text-anchor="middle" opacity="0" stroke-opacity="0">7</text>
<g class="stroked-text"><desc>7</desc>
<path d="M66.8867 80.8625
L67.7333 80.8625
" />
<path d="M67.7333 80.8625
L67.1891 82.1325
" />
</g></g>
<g style="fill:none; 
stroke:#840000; stroke-width:0.1524; stroke-opacity:1; 
stroke-linecap:round; stroke-linejoin:round;">
<path d="M60.9600 54.6100
L60.9600 52.0700
" />
</g>
<g style="fill:none; 
stroke:#006464; stroke-width:0.1524; stroke-opacity:1; 
stroke-linecap:round; stroke-linejoin:round;">
<g transform="rotate(-90.000000 60.9600 55.1180)">
<text x="60.9600" y="55.7530"
textLength="3.7108" font-size="1.6933" lengthAdjust="spacingAndGlyphs"
text-anchor="end" opacity="0" stroke-opacity="0">3V3</text>
</g>
<g class="stroked-text"><desc>3V3</desc>
<path d="M60.2695 58.5443
L60.2695 57.7581
" />
<path d="M60.2695 57.7581
L60.7533 58.1815
" />
<path d="M60.7533 58.1815
L60.7533 58.0000
" />
<path d="M60.7533 58.0000
L60.8138 57.8791
" />
<path d="M60.8138 57.8791
L60.8743 57.8186
" />
<path d="M60.8743 57.8186
L60.9952 57.7581
" />
<path d="M60.9952 57.7581
L61.2976 57.7581
" />
<path d="M61.2976 57.7581
L61.4186 57.8186
" />
<path d="M61.4186 57.8186
L61.4791 57.8791
" />
<path d="M61.4791 57.8791
L61.5395 58.0000
" />
<path d="M61.5395 58.0000
L61.5395 58.3629
" />
<path d="M61.5395 58.3629
L61.4791 58.4838
" />
<path d="M61.4791 58.4838
L61.4186 58.5443
" />
<path d="M60.2695 57.3953
L61.5395 56.9720
" />
<path d="M61.5395 56.9720
L60.2695 56.5486
" />
<path d="M60.2695 56.2462
L60.2695 55.4600
" />
<path d="M60.2695 55.4600
L60.7533 55.8834
" />
<path d="M60.7533 55.8834
L60.7533 55.7019
" />
<path d="M60.7533 55.7019
L60.8138 55.5810
" />
<path d="M60.8138 55.5810
L60.8743 55.5205
" />
<path d="M60.8743 55.5205
L60.9952 55.4600
" />
<path d="M60.9952 55.4600
L61.2976 55.4600
" />
<path d="M61.2976 55.4600
L61.4186 55.5205
" />
<path d="M61.4186 55.5205
L61.4791 55.5810
" />
<path d="M61.4791 55.5810
L61.5395 55.7019
" />
<path d="M61.5395 55.7019
L61.5395 56.0648
" />
<path d="M61.5395 56.0648
L61.4791 56.1857
" />
<path d="M61.4791 56.1857
L61.4186 56.2462
" />
</g></g>
<g style="fill:none; 
stroke:#A90000; stroke-width:0.1524; stroke-opacity:1; 
stroke-linecap:round; stroke-linejoin:round;">
<g transform="rotate(-90.000000 60.7060 53.3400)">
<text x="60.7060" y="53.3400"
textLength="1.4127" font-size="1.6933" lengthAdjust="spacingAndGlyphs"
text-anchor="middle" opacity="0" stroke-opacity="0">8</text>
</g>
<g class="stroked-text"><desc>8</desc>
<path d="M59.8168 53.4608
L59.7563 53.5818
" />
<path d="M59.7563 53.5818
L59.6959 53.6423
" />
<path d="M59.6959 53.6423
L59.5749 53.7027
" />
<path d="M59.5749 53.7027
L59.5144 53.7027
" />
<path d="M59.5144 53.7027
L59.3935 53.6423
" />
<path d="M59.3935 53.6423
L59.3330 53.5818
" />
<path d="M59.3330 53.5818
L59.2725 53.4608
" />
<path d="M59.2725 53.4608
L59.2725 53.2189
" />
<path d="M59.2725 53.2189
L59.3330 53.0980
" />
<path d="M59.3330 53.0980
L59.3935 53.0375
" />
<path d="M59.3935 53.0375
L59.5144 52.9770
" />
<path d="M59.5144 52.9770
L59.5749 52.9770
" />
<path d="M59.5749 52.9770
L59.6959 53.0375
" />
<path d="M59.6959 53.0375
L59.7563 53.0980
" />
<path d="M59.7563 53.0980
L59.8168 53.2189
" />
<path d="M59.8168 53.2189
L59.8168 53.4608
" />
<path d="M59.8168 53.4608
L59.8773 53.5818
" />
<path d="M59.8773 53.5818
L59.9378 53.6423
" />
<path d="M59.9378 53.6423
L60.0587 53.7027
" />
<path d="M60.0587 53.7027
L60.3006 53.7027
" />
<path d="M60.3006 53.7027
L60.4216 53.6423
" />
<path d="M60.4216 53.6423
L60.4821 53.5818
" />
<path d="M60.4821 53.5818
L60.5425 53.4608
" />
<path d="M60.5425 53.4608
L60.5425 53.2189
" />
<path d="M60.5425 53.2189
L60.4821 53.0980
" />
<path d="M60.4821 53.0980
L60.4216 53.0375
" />
<path d="M60.4216 53.0375
L60.3006 52.9770
" />
<path d="M60.3006 52.9770
L60.0587 52.9770
" />
<path d="M60.0587 52.9770
L59.9378 53.0375
" />
<path d="M59.9378 53.0375
L59.8773 53.0980
" />
<path d="M59.8773 53.0980
L59.8168 53.2189
" />
</g></g>
<g style="fill:none; 
stroke:#840000; stroke-width:0.1524; stroke-opacity:1; 
stroke-linecap:round; stroke-linejoin:round;">
<path d="M55.8800 54.6100
L55.8800 52.0700
" />
</g>
<g style="fill:none; 
stroke:#006464; stroke-width:0.1524; stroke-opacity:1; 
stroke-linecap:round; stroke-linejoin:round;">
<g transform="rotate(-90.000000 55.8800 55.1180)">
<text x="55.8800" y="55.7530"
textLength="2.5013" font-size="1.6933" lengthAdjust="spacingAndGlyphs"
text-anchor="end" opacity="0" stroke-opacity="0">5V</text>
</g>
<g class="stroked-text"><desc>5V</desc>
<path d="M55.1895 56.6091
L55.1895 57.2139
" />
<path d="M55.1895 57.2139
L55.7943 57.2743
" />
<path d="M55.7943 57.2743
L55.7338 57.2139
" />
<path d="M55.7338 57.2139
L55.6733 57.0929
" />
<path d="M55.6733 57.0929
L55.6733 56.7905
" />
<path d="M55.6733 56.7905
L55.7338 56.6696
" />
<path d="M55.7338 56.6696
L55.7943 56.6091
" />
<path d="M55.7943 56.6091
L55.9152 56.5486
" />
<path d="M55.9152 56.5486
L56.2176 56.5486
" />
<path d="M56.2176 56.5486
L56.3386 56.6091
" />
<path d="M56.3386 56.6091
L56.3991 56.6696
" />
<path d="M56.3991 56.6696
L56.4595 56.7905
" />
<path d="M56.4595 56.7905
L56.4595 57.0929
" />
<path d="M56.4595 57.0929
L56.3991 57.2139
" />
<path d="M56.3991 57.2139
L56.3386 57.2743
" />
<path d="M55.1895 56.1858
L56.4595 55.7625
" />
<path d="M56.4595 55.7625
L55.1895 55.3391
" />
</g></g>
<g style="fill:none; 
stroke:#A90000; stroke-width:0.1524; stroke-opacity:1; 
stroke-linecap:round; stroke-linejoin:round;">
<g transform="rotate(-90.000000 55.6260 53.3400)">
<text x="55.6260" y="53.3400"
textLength="1.4127" font-size="1.6933" lengthAdjust="spacingAndGlyphs"
text-anchor="middle" opacity="0" stroke-opacity="0">9</text>
</g>
<g class="stroked-text"><desc>9</desc>
<path d="M55.4625 53.5818
L55.4625 53.3399
" />
<path d="M55.4625 53.3399
L55.4021 53.2189
" />
<path d="M55.4021 53.2189
L55.3416 53.1585
" />
<path d="M55.3416 53.1585
L55.1601 53.0375
" />
<path d="M55.1601 53.0375
L54.9182 52.9770
" />
<path d="M54.9182 52.9770
L54.4344 52.9770
" />
<path d="M54.4344 52.9770
L54.3135 53.0375
" />
<path d="M54.3135 53.0375
L54.2530 53.0980
" />
<path d="M54.2530 53.0980
L54.1925 53.2189
" />
<path d="M54.1925 53.2189
L54.1925 53.4608
" />
<path d="M54.1925 53.4608
L54.2530 53.5818
" />
<path d="M54.2530 53.5818
L54.3135 53.6423
" />
<path d="M54.3135 53.6423
L54.4344 53.7027
" />
<path d="M54.4344 53.7027
L54.7368 53.7027
" />
<path d="M54.7368 53.7027
L54.8578 53.6423
" />
<path d="M54.8578 53.6423
L54.9182 53.5818
" />
<path d="M54.9182 53.5818
L54.9787 53.4608
" />
<path d="M54.9787 53.4608
L54.9787 53.2189
" />
<path d="M54.9787 53.2189
L54.9182 53.0980
" />
<path d="M54.9182 53.0980
L54.8578 53.0375
" />
<path d="M54.8578 53.0375
L54.7368 52.9770
" />
</g></g>
<g style="fill:none; 
stroke:#006464; stroke-width:0.1524; stroke-opacity:1; 
stroke-linecap:round; stroke-linejoin:round;">
<text x="61.9953" y="93.3450"
textLength="2.7432" font-size="1.6933" lengthAdjust="spacingAndGlyphs"
text-anchor="middle" opacity="0" stroke-opacity="0">U1</text>
<g class="stroked-text"><desc>U1</desc>
<path d="M61.0276 92.0195
L61.0276 93.0476
" />
<path d="M61.0276 93.0476
L61.0881 93.1686
" />
<path d="M61.0881 93.1686
L61.1486 93.2291
" />
<path d="M61.1486 93.2291
L61.2695 93.2895
" />
<path d="M61.2695 93.2895
L61.5114 93.2895
" />
<path d="M61.5114 93.2895
L61.6324 93.2291
" />
<path d="M61.6324 93.2291
L61.6929 93.1686
" />
<path d="M61.6929 93.1686
L61.7533 93.0476
" />
<path d="M61.7533 93.0476
L61.7533 92.0195
" />
<path d="M63.0234 93.2895
L62.2977 93.2895
" />
<path d="M62.6605 93.2895
L62.6605 92.0195
" />
<path d="M62.6605 92.0195
L62.5396 92.2010
" />
<path d="M62.5396 92.2010
L62.4186 92.3219
" />
<path d="M62.4186 92.3219
L62.2977 92.3824
" />
</g><text x="68.0428" y="95.8850"
textLength="14.8383" font-size="1.6933" lengthAdjust="spacingAndGlyphs"
text-anchor="middle" opacity="0" stroke-opacity="0">WeMos_D1_mini</text>
<g class="stroked-text"><desc>WeMos_D1_mini</desc>
<path d="M60.9067 94.5595
L61.2091 95.8295
" />
<path d="M61.2091 95.8295
L61.4510 94.9224
" />
<path d="M61.4510 94.9224
L61.6929 95.8295
" />
<path d="M61.6929 95.8295
L61.9953 94.5595
" />
<path d="M62.9628 95.7691
L62.8419 95.8295
" />
<path d="M62.8419 95.8295
L62.6000 95.8295
" />
<path d="M62.6000 95.8295
L62.4790 95.7691
" />
<path d="M62.4790 95.7691
L62.4186 95.6481
" />
<path d="M62.4186 95.6481
L62.4186 95.1643
" />
<path d="M62.4186 95.1643
L62.4790 95.0433
" />
<path d="M62.4790 95.0433
L62.6000 94.9829
" />
<path d="M62.6000 94.9829
L62.8419 94.9829
" />
<path d="M62.8419 94.9829
L62.9628 95.0433
" />
<path d="M62.9628 95.0433
L63.0233 95.1643
" />
<path d="M63.0233 95.1643
L63.0233 95.2852
" />
<path d="M63.0233 95.2852
L62.4186 95.4062
" />
<path d="M63.5676 95.8295
L63.5676 94.5595
" />
<path d="M63.5676 94.5595
L63.9910 95.4667
" />
<path d="M63.9910 95.4667
L64.4143 94.5595
" />
<path d="M64.4143 94.5595
L64.4143 95.8295
" />
<path d="M65.2005 95.8295
L65.0795 95.7691
" />
<path d="M65.0795 95.7691
L65.0190 95.7086
" />
<path d="M65.0190 95.7086
L64.9586 95.5876
" />
<path d="M64.9586 95.5876
L64.9586 95.2248
" />
<path d="M64.9586 95.2248
L65.0190 95.1038
" />
<path d="M65.0190 95.1038
L65.0795 95.0433
" />
<path d="M65.0795 95.0433
L65.2005 94.9829
" />
<path d="M65.2005 94.9829
L65.3819 94.9829
" />
<path d="M65.3819 94.9829
L65.5028 95.0433
" />
<path d="M65.5028 95.0433
L65.5633 95.1038
" />
<path d="M65.5633 95.1038
L65.6238 95.2248
" />
<path d="M65.6238 95.2248
L65.6238 95.5876
" />
<path d="M65.6238 95.5876
L65.5633 95.7086
" />
<path d="M65.5633 95.7086
L65.5028 95.7691
" />
<path d="M65.5028 95.7691
L65.3819 95.8295
" />
<path d="M65.3819 95.8295
L65.2005 95.8295
" />
<path d="M66.1076 95.7691
L66.2285 95.8295
" />
<path d="M66.2285 95.8295
L66.4704 95.8295
" />
<path d="M66.4704 95.8295
L66.5914 95.7691
" />
<path d="M66.5914 95.7691
L66.6518 95.6481
" />
<path d="M66.6518 95.6481
L66.6518 95.5876
" />
<path d="M66.6518 95.5876
L66.5914 95.4667
" />
<path d="M66.5914 95.4667
L66.4704 95.4062
" />
<path d="M66.4704 95.4062
L66.2890 95.4062
" />
<path d="M66.2890 95.4062
L66.1680 95.3457
" />
<path d="M66.1680 95.3457
L66.1076 95.2248
" />
<path d="M66.1076 95.2248
L66.1076 95.1643
" />
<path d="M66.1076 95.1643
L66.1680 95.0433
" />
<path d="M66.1680 95.0433
L66.2890 94.9829
" />
<path d="M66.2890 94.9829
L66.4704 94.9829
" />
<path d="M66.4704 94.9829
L66.5914 95.0433
" />
<path d="M66.8938 95.9505
L67.8614 95.9505
" />
<path d="M68.1637 95.8295
L68.1637 94.5595
" />
<path d="M68.1637 94.5595
L68.4661 94.5595
" />
<path d="M68.4661 94.5595
L68.6475 94.6200
" />
<path d="M68.6475 94.6200
L68.7685 94.7410
" />
<path d="M68.7685 94.7410
L68.8290 94.8619
" />
<path d="M68.8290 94.8619
L68.8894 95.1038
" />
<path d="M68.8894 95.1038
L68.8894 95.2852
" />
<path d="M68.8894 95.2852
L68.8290 95.5271
" />
<path d="M68.8290 95.5271
L68.7685 95.6481
" />
<path d="M68.7685 95.6481
L68.6475 95.7691
" />
<path d="M68.6475 95.7691
L68.4661 95.8295
" />
<path d="M68.4661 95.8295
L68.1637 95.8295
" />
<path d="M70.0990 95.8295
L69.3733 95.8295
" />
<path d="M69.7361 95.8295
L69.7361 94.5595
" />
<path d="M69.7361 94.5595
L69.6152 94.7410
" />
<path d="M69.6152 94.7410
L69.4942 94.8619
" />
<path d="M69.4942 94.8619
L69.3733 94.9224
" />
<path d="M70.3409 95.9505
L71.3085 95.9505
" />
<path d="M71.6108 95.8295
L71.6108 94.9829
" />
<path d="M71.6108 95.1038
L71.6713 95.0433
" />
<path d="M71.6713 95.0433
L71.7923 94.9829
" />
<path d="M71.7923 94.9829
L71.9737 94.9829
" />
<path d="M71.9737 94.9829
L72.0946 95.0433
" />
<path d="M72.0946 95.0433
L72.1551 95.1643
" />
<path d="M72.1551 95.1643
L72.1551 95.8295
" />
<path d="M72.1551 95.1643
L72.2156 95.0433
" />
<path d="M72.2156 95.0433
L72.3365 94.9829
" />
<path d="M72.3365 94.9829
L72.5180 94.9829
" />
<path d="M72.5180 94.9829
L72.6389 95.0433
" />
<path d="M72.6389 95.0433
L72.6994 95.1643
" />
<path d="M72.6994 95.1643
L72.6994 95.8295
" />
<path d="M73.3041 95.8295
L73.3041 94.9829
" />
<path d="M73.3041 94.5595
L73.2437 94.6200
" />
<path d="M73.2437 94.6200
L73.3041 94.6805
" />
<path d="M73.3041 94.6805
L73.3646 94.6200
" />
<path d="M73.3646 94.6200
L73.3041 94.5595
" />
<path d="M73.3041 94.5595
L73.3041 94.6805
" />
<path d="M73.9089 94.9829
L73.9089 95.8295
" />
<path d="M73.9089 95.1038
L73.9694 95.0433
" />
<path d="M73.9694 95.0433
L74.0904 94.9829
" />
<path d="M74.0904 94.9829
L74.2718 94.9829
" />
<path d="M74.2718 94.9829
L74.3927 95.0433
" />
<path d="M74.3927 95.0433
L74.4532 95.1643
" />
<path d="M74.4532 95.1643
L74.4532 95.8295
" />
<path d="M75.0579 95.8295
L75.0579 94.9829
" />
<path d="M75.0579 94.5595
L74.9975 94.6200
" />
<path d="M74.9975 94.6200
L75.0579 94.6805
" />
<path d="M75.0579 94.6805
L75.1184 94.6200
" />
<path d="M75.1184 94.6200
L75.0579 94.5595
" />
<path d="M75.0579 94.5595
L75.0579 94.6805
" />
</g></g>
<g style="fill:none; 
stroke:#009600; stroke-width:0.1524; stroke-opacity:1; 
stroke-linecap:round; stroke-linejoin:round;">
<path d="M95.2500 64.7700
L95.2500 76.2000
" />
<path d="M82.5500 57.1500
L95.2500 57.1500
" />
<path d="M82.5500 77.4700
L82.5500 57.1500
" />
<path d="M68.5800 77.4700
L82.5500 77.4700
" />
<path d="M95.2500 101.6000
L58.4200 101.6000
" />
<path d="M95.2500 83.8200
L95.2500 101.6000
" />
<path d="M58.4200 101.6000
L58.4200 92.7100
" />
</g> 
</svg>
